<?xml version="1.0" encoding="UTF-8"?>
<svg width="50" height="50" viewBox="0 0 50 50" fill="none" xmlns="http://www.w3.org/2000/svg">
  <path d="M25 5C13.954 5 5 13.954 5 25C5 36.046 13.954 45 25 45C36.046 45 45 36.046 45 25C45 13.954 36.046 5 25 5ZM25 8C34.389 8 42 15.611 42 25C42 34.389 34.389 42 25 42C15.611 42 8 34.389 8 25C8 15.611 15.611 8 25 8Z" fill="#4CAF50"/>
  <path d="M25 12C18.373 12 13 17.373 13 24C13 30.627 18.373 36 25 36C31.627 36 37 30.627 37 24C37 17.373 31.627 12 25 12ZM25 15C29.971 15 34 19.029 34 24C34 28.971 29.971 33 25 33C20.029 33 16 28.971 16 24C16 19.029 20.029 15 25 15Z" fill="#4CAF50"/>
  <path d="M25 18C21.686 18 19 20.686 19 24C19 27.314 21.686 30 25 30C28.314 30 31 27.314 31 24C31 20.686 28.314 18 25 18ZM25 20C27.209 20 29 21.791 29 24C29 26.209 27.209 28 25 28C22.791 28 21 26.209 21 24C21 21.791 22.791 20 25 20Z" fill="#4CAF50"/>
</svg> 